<?xml version="1.0" standalone="no"?>
<!DOCTYPE svg PUBLIC "-//W3C//DTD SVG 20010904//EN"
 "http://www.w3.org/TR/2001/REC-SVG-20010904/DTD/svg10.dtd">
<svg version="1.0" xmlns="http://www.w3.org/2000/svg"
 width="416.000000pt" height="416.000000pt" viewBox="0 0 416.000000 416.000000"
 preserveAspectRatio="xMidYMid meet">
<metadata>
Created by potrace 1.14, written by Peter Selinger 2001-2017
</metadata>
<g transform="translate(0.000000,416.000000) scale(0.100000,-0.100000)"
fill="#000000" stroke="none">
<path d="M1895 3723 c-235 -30 -528 -140 -734 -274 -35 -23 -88 -52 -117 -66
-52 -24 -141 -98 -137 -114 2 -5 -4 -9 -12 -9 -8 0 -15 -4 -15 -9 0 -20 -67
-60 -110 -66 -59 -8 -79 -34 -80 -102 0 -29 0 -55 -1 -58 -15 -71 -26 -103
-59 -167 -35 -67 -105 -236 -116 -278 -2 -8 -14 -55 -28 -105 -51 -191 -64
-464 -31 -655 2 -14 7 -45 10 -70 11 -74 81 -275 135 -382 123 -248 301 -462
512 -616 191 -140 535 -274 768 -298 25 -3 56 -7 70 -9 75 -13 318 -4 415 15
28 5 65 12 83 15 476 78 903 397 1147 858 73 136 131 306 150 432 23 154 20
464 -5 590 -5 28 -11 60 -13 72 -2 12 -6 26 -10 29 -4 4 -7 15 -7 25 0 28 -60
198 -102 289 -58 126 -121 228 -218 354 -65 85 -310 306 -338 306 -6 0 -12 4
-14 9 -7 20 -184 116 -333 181 -41 18 -209 70 -226 70 -10 0 -30 5 -46 12 -15
6 -41 13 -58 14 -49 6 -447 12 -480 7z"/>
</g>
</svg>
